STARTFONT 2.1
FONT HAN-GB2312
SIZE 20 72 72
FONTBOUNDINGBOX 9 20 0 0
STARTPROPERTIES 1
BITCOUNT 8
ENDPROPERTIES
CHARS 94
STARTCHAR  00A4
ENCODING  164
SWIDTH  1000 0
DWIDTH  9 0
BBX  9 11 0 4
BITMAP
000020000000200000
00A0FF800060F0C010
10E0FFFFF0FFFFF030
0020F0FFFFFFFF4000
0000F0FF60FFFF2000
0000FFFF30FFFF3000
0000F0FF60FFFF2000
0020F0FFFFFFFF4000
10E0FFFFF0FFFFF030
00A0FF800010E0C010
000030000000201000
ENDCHAR
STARTCHAR  00A7
ENCODING  167
SWIDTH  1000 0
DWIDTH  8 0
BBX  7 16 1 -2
BITMAP
10A0F0F0C03000
A0FFFFFFFFE000
F0FF6030FFFF30
F0FF6000A0A020
A0FFFFA0200000
10E0FFFFF04000
80FFE0E0FFE000
F0FF4020FFFF30
F0FF6010FFFF20
C0FFE0C0FFA000
20E0FFFFF02000
001080F0FFE000
F0F03030FFFF20
F0FF6030FFFF20
A0FFFFFFFFC000
1080C0C0801000
ENDCHAR
STARTCHAR  00A8
ENCODING  168
SWIDTH  1000 0
DWIDTH  5 0
BBX  6 2 0 15
BITMAP
FFFF30FFFF30
FFFF30FFFF30
ENDCHAR
STARTCHAR  00B0
ENCODING  176
SWIDTH  1000 0
DWIDTH  6 0
BBX  4 4 1 10
BITMAP
60F0F060
F04040F0
F04040F0
60F0F060
ENDCHAR
STARTCHAR  00B1
ENCODING  177
SWIDTH  1000 0
DWIDTH  9 0
BBX  7 7 1 3
BITMAP
0000E0FF000000
0000E0FF000000
0000E0FF000000
FFFFFFFFFFFFFF
FFFFFFFFFFFFFF
0000E0FF000000
0000E0FF000000
ENDCHAR
STARTCHAR  00B7
ENCODING  183
SWIDTH  1000 0
DWIDTH  4 0
BBX  3 2 1 6
BITMAP
FFFF30
FFFF30
ENDCHAR
STARTCHAR  00D7
ENCODING  215
SWIDTH  1000 0
DWIDTH  8 0
BBX  8 8 0 3
BITMAP
0000000000000000
00A060000080A000
00C0FF6080FFA000
0000C0FFFFA00000
000080FFFF800000
0080FFA0A0FF8000
10E0800000A0C000
0010000000001000
ENDCHAR
STARTCHAR  00E0
ENCODING  224
SWIDTH  1000 0
DWIDTH  8 0
BBX  8 17 0 0
BITMAP
0030E0F020000000
000020E0E0000000
0000000000000000
0000A0FFFFC00000
0000E0FFFFF00000
0000F0FFFFFF1000
0020FFE0F0FF4000
0040FFA0C0FF6000
0060FF80A0FFA000
00A0FF6080FFC000
00C0FF4060FFE000
00E0FF2030FFFF10
10FFFF0010FFFF30
40FFFFFFFFFFFF60
60FFF0E0E0F0FF80
80FF800000A0FFA0
C0FF60000060FFE0
ENDCHAR
STARTCHAR  00E1
ENCODING  225
SWIDTH  1000 0
DWIDTH  8 0
BBX  8 17 0 0
BITMAP
00000010E0F04000
000000A0F0300000
0000000000000000
0000A0FFFFC00000
0000E0FFFFF00000
0000F0FFFFFF1000
0020FFE0F0FF4000
0040FFA0C0FF6000
0060FF80A0FFA000
00A0FF6080FFC000
00C0FF4060FFE000
00E0FF2030FFFF10
10FFFF0010FFFF30
40FFFFFFFFFFFF60
60FFF0E0E0F0FF80
80FF800000A0FFA0
C0FF60000060FFE0
ENDCHAR
STARTCHAR  00E8
ENCODING  232
SWIDTH  1000 0
DWIDTH  8 0
BBX  6 17 1 0
BITMAP
40F0E0100000
0030F0A00000
000000000000
FFFFFFFFFFFF
FFFFFFFFFFFF
FFFF30000000
FFFF30000000
FFFF30000000
FFFF30000000
FFFFFFFFFF00
FFFFFFFFFF00
FFFF30000000
FFFF30000000
FFFF30000000
FFFF30000000
FFFFFFFFFFFF
FFFFFFFFFFFF
ENDCHAR
STARTCHAR  00E9
ENCODING  233
SWIDTH  1000 0
DWIDTH  8 0
BBX  6 17 1 0
BITMAP
000010F0F030
000080FF4000
000080400000
FFFFFFFFFFFF
FFFFFFFFFFFF
FFFF30000000
FFFF30000000
FFFF30000000
FFFF30000000
FFFFFFFFFF00
FFFFFFFFFF00
FFFF30000000
FFFF30000000
FFFF30000000
FFFF30000000
FFFFFFFFFFFF
FFFFFFFFFFFF
ENDCHAR
STARTCHAR  00EA
ENCODING  234
SWIDTH  1000 0
DWIDTH  8 0
BBX  6 17 1 0
BITMAP
0080FFFF4000
30FFC0E0F020
608020308060
FFFFFFFFFFFF
FFFFFFFFFFFF
FFFF30000000
FFFF30000000
FFFF30000000
FFFF30000000
FFFFFFFFFF00
FFFFFFFFFF00
FFFF30000000
FFFF30000000
FFFF30000000
FFFF30000000
FFFFFFFFFFFF
FFFFFFFFFFFF
ENDCHAR
STARTCHAR  00EC
ENCODING  236
SWIDTH  1000 0
DWIDTH  4 0
BBX  5 17 -1 0
BITMAP
30E0F03000
0020E0E010
0000000000
0000FFFF30
0000FFFF30
0000FFFF30
0000FFFF30
0000FFFF30
0000FFFF30
0000FFFF30
0000FFFF30
0000FFFF30
0000FFFF30
0000FFFF30
0000FFFF30
0000FFFF30
0000FFFF30
ENDCHAR
STARTCHAR  00ED
ENCODING  237
SWIDTH  1000 0
DWIDTH  4 0
BBX  4 17 1 0
BITMAP
10E0F040
A0F04000
00000000
FFFF3000
FFFF3000
FFFF3000
FFFF3000
FFFF3000
FFFF3000
FFFF3000
FFFF3000
FFFF3000
FFFF3000
FFFF3000
FFFF3000
FFFF3000
FFFF3000
ENDCHAR
STARTCHAR  00F2
ENCODING  242
SWIDTH  1000 0
DWIDTH  9 0
BBX  7 17 1 0
BITMAP
10C0FF80000000
0010A0FF600000
00000000000000
0080E0FFE08000
80FFFFFFFFFF80
E0FF800080FFE0
FFFF300030FFFF
FFFF300030FFFF
FFFF300030FFFF
FFFF300030FFFF
FFFF300030FFFF
FFFF300030FFFF
FFFF300030FFFF
FFFF300030FFFF
E0FF800080FFE0
80FFFFFFFFFF80
0080E0FFE08000
ENDCHAR
STARTCHAR  00F3
ENCODING  243
SWIDTH  1000 0
DWIDTH  9 0
BBX  7 17 1 0
BITMAP
00000080FFC010
000040FFA00000
00000000000000
0080E0FFE08000
80FFFFFFFFFF80
E0FF800080FFE0
FFFF300030FFFF
FFFF300030FFFF
FFFF300030FFFF
FFFF300030FFFF
FFFF300030FFFF
FFFF300030FFFF
FFFF300030FFFF
FFFF300030FFFF
E0FF800080FFE0
80FFFFFFFFFF80
0080E0FFE08000
ENDCHAR
STARTCHAR  00F7
ENCODING  247
SWIDTH  1000 0
DWIDTH  9 0
BBX  7 8 1 3
BITMAP
0000FFFF300000
0000FFFF300000
00000000000000
FFFFFFFFFFFFFF
FFFFFFFFFFFFFF
00000000000000
0000FFFF300000
0000FFFF300000
ENDCHAR
STARTCHAR  00F9
ENCODING  249
SWIDTH  1000 0
DWIDTH  9 0
BBX  7 17 1 0
BITMAP
10C0FF80000000
0010C0FF400000
00000000000000
FFFF300030FFFF
FFFF300030FFFF
FFFF300030FFFF
FFFF300030FFFF
FFFF300030FFFF
FFFF300030FFFF
FFFF300030FFFF
FFFF300030FFFF
FFFF300030FFFF
FFFF300030FFFF
FFFF300030FFFF
E0FF800080FFE0
80FFFFFFFFFF80
0080E0FFE08000
ENDCHAR
STARTCHAR  00FA
ENCODING  250
SWIDTH  1000 0
DWIDTH  9 0
BBX  7 17 1 0
BITMAP
00000080FFC010
000060FFA00000
00000000000000
FFFF300030FFFF
FFFF300030FFFF
FFFF300030FFFF
FFFF300030FFFF
FFFF300030FFFF
FFFF300030FFFF
FFFF300030FFFF
FFFF300030FFFF
FFFF300030FFFF
FFFF300030FFFF
FFFF300030FFFF
E0FF800080FFE0
80FFFFFFFFFF80
0080E0FFE08000
ENDCHAR
STARTCHAR  00FC
ENCODING  252
SWIDTH  1000 0
DWIDTH  9 0
BBX  7 17 1 0
BITMAP
30FFFF30FFFF00
30FFFF30FFFF00
00000000000000
FFFF300030FFFF
FFFF300030FFFF
FFFF300030FFFF
FFFF300030FFFF
FFFF300030FFFF
FFFF300030FFFF
FFFF300030FFFF
FFFF300030FFFF
FFFF300030FFFF
FFFF300030FFFF
FFFF300030FFFF
E0FF800080FFE0
80FFFFFFFFFF80
0080E0FFE08000
ENDCHAR
STARTCHAR  0401
ENCODING  1025
SWIDTH  1000 0
DWIDTH  8 0
BBX  6 17 1 0
BITMAP
FFFF3030FFFF
FFFF3030FFFF
000000000000
FFFFFFFFFFFF
FFFFFFFFFFFF
FFFF30000000
FFFF30000000
FFFF30000000
FFFF30000000
FFFFFFFFFFA0
FFFFFFFFFFA0
FFFF30000000
FFFF30000000
FFFF30000000
FFFF30000000
FFFFFFFFFFFF
FFFFFFFFFFFF
ENDCHAR
STARTCHAR  0410
ENCODING  1040
SWIDTH  1000 0
DWIDTH  8 0
BBX  8 14 0 0
BITMAP
0000A0FFFFC00000
0000E0FFFFE00000
0000F0FFFFFF1000
0020FFE0F0FF3000
0040FFA0E0FF6000
0080FF80A0FF8000
00A0FF6080FFC000
00C0FF4060FFE000
00F0FF1030FFFF10
10FFF00010FFFF30
40FFFFFFFFFFFF60
60FFF0E0E0F0FF80
80FF800000A0FFA0
C0FF40000060FFE0
ENDCHAR
STARTCHAR  0411
ENCODING  1041
SWIDTH  1000 0
DWIDTH  8 0
BBX  7 14 1 0
BITMAP
FFFFFFFFFF8000
FFFFFFFFFF8000
FFFF3000000000
FFFF3000000000
FFFF3000000000
FFFFFFF0C02000
FFFFFFFFFFE000
FFFF3030FFFF20
FFFF3000FFFF30
FFFF3000FFFF30
FFFF3000FFFF30
FFFF3030FFFF20
FFFFFFFFFFE000
FFFFFFF0C02000
ENDCHAR
STARTCHAR  0412
ENCODING  1042
SWIDTH  1000 0
DWIDTH  9 0
BBX  7 14 1 0
BITMAP
FFFFFFFFF0A010
FFFFFFFFFFFFA0
FFFF300080FFF0
FFFF300040FFFF
FFFF300030FFF0
FFFF3010A0FFC0
FFFFFFFFFFE020
FFFFFFFFFFFF60
FFFF300080FFE0
FFFF300030FFFF
FFFF300030FFFF
FFFF300080FFF0
FFFFFFFFFFFFA0
FFFFFFFFF0A010
ENDCHAR
STARTCHAR  0413
ENCODING  1043
SWIDTH  1000 0
DWIDTH  8 0
BBX  6 14 1 0
BITMAP
FFFFFFFFFFFF
FFFFFFFFFFFF
FFFF30000000
FFFF30000000
FFFF30000000
FFFF30000000
FFFF30000000
FFFF30000000
FFFF30000000
FFFF30000000
FFFF30000000
FFFF30000000
FFFF30000000
FFFF30000000
ENDCHAR
STARTCHAR  0414
ENCODING  1044
SWIDTH  1000 0
DWIDTH  11 0
BBX  10 17 0 -3
BITMAP
0000FFFFFFFFFFFFFF00
0000FFFFFFFFFFFFFF00
0000FFFF300030FFFF00
0000FFFF300030FFFF00
0000FFFF300030FFFF00
0000FFFF300030FFFF00
0000FFFF300030FFFF00
0000FFFF300030FFFF00
0000FFFF300030FFFF00
0000FFFF300030FFFF00
0000FFFF300030FFFF00
0040FFFF200030FFFF00
FFFFFFFFFFFFFFFFFFFF
FFFFFFFFFFFFFFFFFFFF
FFFF300000000030FFFF
FFFF300000000030FFFF
00000000000000000000
ENDCHAR
STARTCHAR  0415
ENCODING  1045
SWIDTH  1000 0
DWIDTH  8 0
BBX  6 14 1 0
BITMAP
FFFFFFFFFFFF
FFFFFFFFFFFF
FFFF30000000
FFFF30000000
FFFF30000000
FFFF30000000
FFFFFFFFFF00
FFFFFFFFFF00
FFFF30000000
FFFF30000000
FFFF30000000
FFFF30000000
FFFFFFFFFFFF
FFFFFFFFFFFF
ENDCHAR
STARTCHAR  0416
ENCODING  1046
SWIDTH  1000 0
DWIDTH  12 0
BBX  14 14 -1 0
BITMAP
00E0FF600000FFFF300020FFF010
0060FFE00000FFFF3000A0FF8000
0000E0FF4000FFFF3020FFF01000
000060FFC000FFFF30A0FF800000
000000E0FF40FFFF40F0F0100000
00000060FFC0FFFFC0FFA0000000
00000020FFFFFFFFFFFF60000000
00000080FFFFFFFFFFFFC0000000
000000E0FFE0FFFFE0FFFF200000
000040FFE020FFFF60C0FF800000
0000A0FF8000FFFF3060FFE00000
0020FFFF2000FFFF3000F0FF4000
0080FFC00000FFFF3000A0FFA000
00E0FF600000FFFF300030FFFF10
ENDCHAR
STARTCHAR  0417
ENCODING  1047
SWIDTH  1000 0
DWIDTH  8 0
BBX  7 14 1 0
BITMAP
10A0F0F0C02000
80FFFFFFFFC000
E0FF6040FFFF20
FFFF3000FFFF30
FFFF3000FFFF20
00000040FFF000
000060FFF04000
000060FFFF8000
00000040FFFF10
F0F03000FFFF30
FFFF3000FFFF30
F0FF6030FFFF20
A0FFFFFFFFE000
10A0F0F0C02000
ENDCHAR
STARTCHAR  0418
ENCODING  1048
SWIDTH  1000 0
DWIDTH  9 0
BBX  7 14 1 0
BITMAP
FFFF3000F0FFFF
FFFF3040FFFFFF
FFFF3080FFFFFF
FFFF30A0FFFFFF
FFFF30F0E0FFFF
FFFF60FFA0FFFF
FFFFA0FF60FFFF
FFFFE0F030FFFF
FFFFFFC030FFFF
FFFFFF8030FFFF
FFFFFF4030FFFF
FFFFFF1030FFFF
FFFFE00030FFFF
FFFFA00030FFFF
ENDCHAR
STARTCHAR  0419
ENCODING  1049
SWIDTH  1000 0
DWIDTH  9 0
BBX  7 16 1 0
BITMAP
00FFFFFFFFFF00
00FFFFFFFFFF00
FFFF3000F0FFFF
FFFF3040FFFFFF
FFFF3080FFFFFF
FFFF30A0FFFFFF
FFFF30F0E0FFFF
FFFF60FFA0FFFF
FFFFA0FF60FFFF
FFFFE0F030FFFF
FFFFFFC030FFFF
FFFFFF8030FFFF
FFFFFF4030FFFF
FFFFFF1030FFFF
FFFFE00030FFFF
FFFFA00030FFFF
ENDCHAR
STARTCHAR  041A
ENCODING  1050
SWIDTH  1000 0
DWIDTH  8 0
BBX  8 14 1 0
BITMAP
FFFF300020FFF010
FFFF3000A0FF8000
FFFF3020FFF01000
FFFF3080FF800000
FFFF40F0F0200000
FFFFC0FFA0000000
FFFFFFFF60000000
FFFFFFFFC0000000
FFFFE0FFFF200000
FFFF60C0FF800000
FFFF3060FFE00000
FFFF3000F0FF4000
FFFF300080FFC000
FFFF300030FFFF20
ENDCHAR
STARTCHAR  041B
ENCODING  1051
SWIDTH  1000 0
DWIDTH  11 0
BBX  9 14 1 0
BITMAP
0000FFFFFFFFFFFFFF
0000FFFFFFFFFFFFFF
0000FFFF300030FFFF
0000FFFF300030FFFF
0000FFFF300030FFFF
0000FFFF300030FFFF
0000FFFF300030FFFF
0000FFFF300030FFFF
0000FFFF300030FFFF
0000FFFF300030FFFF
0000FFFF300030FFFF
0040FFFF200030FFFF
FFFFFFE0000030FFFF
FFF0C020000030FFFF
ENDCHAR
STARTCHAR  041C
ENCODING  1052
SWIDTH  1000 0
DWIDTH  11 0
BBX  10 14 1 0
BITMAP
FFFFFF600000F0FFFF30
FFFFFF800020FFFFFF30
FFFFFFA00040FFFFFF30
FFFFFFC00060FFFFFF30
FFFFF0F00080F0FFFF30
FFFFE0FF10A0E0FFFF30
FFFFA0FF40E0A0FFFF30
FFFF80FF60F080FFFF30
FFFF60FFA0FF60FFFF30
FFFF30FFE0FF40FFFF30
FFFF30E0FFFF10FFFF30
FFFF30A0FFF000FFFF30
FFFF3080FFE000FFFF30
FFFF3060FFA000FFFF30
ENDCHAR
STARTCHAR  041D
ENCODING  1053
SWIDTH  1000 0
DWIDTH  9 0
BBX  7 14 1 0
BITMAP
FFFF300030FFFF
FFFF300030FFFF
FFFF300030FFFF
FFFF300030FFFF
FFFF300030FFFF
FFFF300030FFFF
FFFFFFFFFFFFFF
FFFFFFFFFFFFFF
FFFF300030FFFF
FFFF300030FFFF
FFFF300030FFFF
FFFF300030FFFF
FFFF300030FFFF
FFFF300030FFFF
ENDCHAR
STARTCHAR  041E
ENCODING  1054
SWIDTH  1000 0
DWIDTH  9 0
BBX  7 14 1 0
BITMAP
0080E0FFE08000
80FFFFFFFFFF80
E0FF800080FFE0
FFFF300030FFFF
FFFF300030FFFF
FFFF300030FFFF
FFFF300030FFFF
FFFF300030FFFF
FFFF300030FFFF
FFFF300030FFFF
FFFF300030FFFF
E0FF800080FFE0
80FFFFFFFFFF80
0080E0FFE08000
ENDCHAR
STARTCHAR  041F
ENCODING  1055
SWIDTH  1000 0
DWIDTH  9 0
BBX  7 14 1 0
BITMAP
FFFFFFFFFFFFFF
FFFFFFFFFFFFFF
FFFF300030FFFF
FFFF300030FFFF
FFFF300030FFFF
FFFF300030FFFF
FFFF300030FFFF
FFFF300030FFFF
FFFF300030FFFF
FFFF300030FFFF
FFFF300030FFFF
FFFF300030FFFF
FFFF300030FFFF
FFFF300030FFFF
ENDCHAR
STARTCHAR  0420
ENCODING  1056
SWIDTH  1000 0
DWIDTH  8 0
BBX  7 14 1 0
BITMAP
FFFFFFF0C02000
FFFFFFFFFFE000
FFFF3030FFFF20
FFFF3000FFFF30
FFFF3000FFFF30
FFFF3000FFFF30
FFFF3030FFFF20
FFFFFFFFFFE000
FFFFFFF0C02000
FFFF3000000000
FFFF3000000000
FFFF3000000000
FFFF3000000000
FFFF3000000000
ENDCHAR
STARTCHAR  0421
ENCODING  1057
SWIDTH  1000 0
DWIDTH  9 0
BBX  7 14 1 0
BITMAP
0080E0FFE08000
80FFFFFFFFFF80
E0FF800080FFE0
FFFF300030FFFF
FFFF300030E0E0
FFFF3000000000
FFFF3000000000
FFFF3000000000
FFFF3000104040
FFFF300030FFFF
FFFF300030FFFF
E0FF801080FFE0
80FFFFFFFFFF80
0080E0FFE08000
ENDCHAR
STARTCHAR  0422
ENCODING  1058
SWIDTH  1000 0
DWIDTH  9 0
BBX  7 14 1 0
BITMAP
FFFFFFFFFFFFFF
FFFFFFFFFFFFFF
0000FFFF300000
0000FFFF300000
0000FFFF300000
0000FFFF300000
0000FFFF300000
0000FFFF300000
0000FFFF300000
0000FFFF300000
0000FFFF300000
0000FFFF300000
0000FFFF300000
0000FFFF300000
ENDCHAR
STARTCHAR  0423
ENCODING  1059
SWIDTH  1000 0
DWIDTH  9 0
BBX  10 14 -1 0
BITMAP
10FFFF20000000C0FF80
00C0FF80000000F0FF30
0080FFC0000030FFE000
0020FFFF100080FFA000
0000E0FF6000C0FF6000
000080FFA000F0FF1000
000040FFE030FFE00000
000000F0FFA0FF800000
000000A0FFFFFF400000
00000040FFFFF0000000
00000010FFFFA0000000
00000040FFFF60000000
0000FFFFFFE010000000
0000FFFFE04000000000
ENDCHAR
STARTCHAR  0424
ENCODING  1060
SWIDTH  1000 0
DWIDTH  12 0
BBX  11 14 1 0
BITMAP
00000000FFFF3000000000
10A0F0FFFFFFFFFFC02000
A0FFFFFFFFFFFFFFFFE000
E0FF6000FFFF3030FFFF20
FFFF3000FFFF3000FFFF30
FFFF3000FFFF3000FFFF30
FFFF3000FFFF3000FFFF30
FFFF3000FFFF3000FFFF30
FFFF3000FFFF3000FFFF30
E0FF6000FFFF3030FFFF20
A0FFFFFFFFFFFFFFFFE000
10A0F0FFFFFFFFF0C02000
00000000FFFF3000000000
00000000FFFF3000000000
ENDCHAR
STARTCHAR  0425
ENCODING  1061
SWIDTH  1000 0
DWIDTH  9 0
BBX  9 14 0 0
BITMAP
60FFE0000010FFF000
10FFFF400060FFA000
00C0FF8000C0FF4000
0060FFE010FFF00000
0010F0FFA0FFA00000
0000A0FFFFFF400000
000060FFFFF0000000
000080FFFFFF100000
0000E0FFE0FF600000
0030FFE080FFC00000
0080FF8020FFFF2000
00E0FF3000E0FF8000
30FFE0000080FFE000
80FF80000030FFFF20
ENDCHAR
STARTCHAR  0426
ENCODING  1062
SWIDTH  1000 0
DWIDTH  9 0
BBX  8 17 1 -3
BITMAP
FFFF300030FFFF00
FFFF300030FFFF00
FFFF300030FFFF00
FFFF300030FFFF00
FFFF300030FFFF00
FFFF300030FFFF00
FFFF300030FFFF00
FFFF300030FFFF00
FFFF300030FFFF00
FFFF300030FFFF00
FFFF300030FFFF00
FFFF300030FFFF00
FFFFFFFFFFFFFFFF
FFFFFFFFFFFFFFFF
000000000030FFFF
000000000030FFFF
0000000000000000
ENDCHAR
STARTCHAR  0427
ENCODING  1063
SWIDTH  1000 0
DWIDTH  9 0
BBX  7 14 1 0
BITMAP
FFFF300030FFFF
FFFF300030FFFF
FFFF300030FFFF
FFFF300030FFFF
FFFF300030FFFF
FFFF300030FFFF
E0FF801080FFFF
80FFFFFFFFFFFF
0080E0FFF0FFFF
0000000030FFFF
0000000030FFFF
0000000030FFFF
0000000030FFFF
0000000030FFFF
ENDCHAR
STARTCHAR  0428
ENCODING  1064
SWIDTH  1000 0
DWIDTH  12 0
BBX  11 14 1 0
BITMAP
FFFF3000FFFF3000FFFF30
FFFF3000FFFF3000FFFF30
FFFF3000FFFF3000FFFF30
FFFF3000FFFF3000FFFF30
FFFF3000FFFF3000FFFF30
FFFF3000FFFF3000FFFF30
FFFF3000FFFF3000FFFF30
FFFF3000FFFF3000FFFF30
FFFF3000FFFF3000FFFF30
FFFF3000FFFF3000FFFF30
FFFF3000FFFF3000FFFF30
FFFF3000FFFF3000FFFF30
FFFFFFFFFFFFFFFFFFFF30
FFFFFFFFFFFFFFFFFFFF30
ENDCHAR
STARTCHAR  0429
ENCODING  1065
SWIDTH  1000 0
DWIDTH  12 0
BBX  12 17 1 -3
BITMAP
FFFF3000FFFF3000FFFF3000
FFFF3000FFFF3000FFFF3000
FFFF3000FFFF3000FFFF3000
FFFF3000FFFF3000FFFF3000
FFFF3000FFFF3000FFFF3000
FFFF3000FFFF3000FFFF3000
FFFF3000FFFF3000FFFF3000
FFFF3000FFFF3000FFFF3000
FFFF3000FFFF3000FFFF3000
FFFF3000FFFF3000FFFF3000
FFFF3000FFFF3000FFFF3000
FFFF3000FFFF3000FFFF3000
FFFFFFFFFFFFFFFFFFFFFF30
FFFFFFFFFFFFFFFFFFFFFF30
000000000000000000FFFF30
000000000000000000FFFF30
000000000000000000000000
ENDCHAR
STARTCHAR  042A
ENCODING  1066
SWIDTH  1000 0
DWIDTH  9 0
BBX  9 14 0 0
BITMAP
FFFFFFFF3000000000
FFFFFFFF3000000000
0000FFFF3000000000
0000FFFF3000000000
0000FFFF3000000000
0000FFFFFFF0C02000
0000FFFFFFFFFFE000
0000FFFF3040FFFF20
0000FFFF3000FFFF30
0000FFFF3000FFFF30
0000FFFF3000FFFF30
0000FFFF3030FFFF20
0000FFFFFFFFFFE000
0000FFFFFFF0C02000
ENDCHAR
STARTCHAR  042B
ENCODING  1067
SWIDTH  1000 0
DWIDTH  12 0
BBX  10 14 1 0
BITMAP
FFFF300000000030FFFF
FFFF300000000030FFFF
FFFF300000000030FFFF
FFFF300000000030FFFF
FFFF300000000030FFFF
FFFFFFF0C0200030FFFF
FFFFFFFFFFE00030FFFF
FFFF3030FFFF2030FFFF
FFFF3000FFFF3030FFFF
FFFF3000FFFF3030FFFF
FFFF3000FFFF3030FFFF
FFFF3030FFFF2030FFFF
FFFFFFFFFFE00030FFFF
FFFFFFF0C0200030FFFF
ENDCHAR
STARTCHAR  042C
ENCODING  1068
SWIDTH  1000 0
DWIDTH  8 0
BBX  7 14 1 0
BITMAP
FFFF3000000000
FFFF3000000000
FFFF3000000000
FFFF3000000000
FFFF3000000000
FFFFFFF0C02000
FFFFFFFFFFE000
FFFF3030FFFF20
FFFF3000FFFF30
FFFF3000FFFF30
FFFF3000FFFF30
FFFF3030FFFF20
FFFFFFFFFFE000
FFFFFFF0C02000
ENDCHAR
STARTCHAR  042D
ENCODING  1069
SWIDTH  1000 0
DWIDTH  8 0
BBX  7 14 1 0
BITMAP
10A0F0F0C02000
A0FFFFFFFFE000
E0FF6030FFFF20
FFFF3000FFFF30
E0E03000FFFF30
00000000FFFF30
00A0FFFFFFFF30
00A0FFFFFFFF30
30301000FFFF30
FFFF3000FFFF30
FFFF3000FFFF30
F0FF6030FFFF20
A0FFFFFFFFE000
10A0F0F0C02000
ENDCHAR
STARTCHAR  042E
ENCODING  1070
SWIDTH  1000 0
DWIDTH  12 0
BBX  11 14 1 0
BITMAP
FFFF300020C0F0F0C02000
FFFF3000C0FFFFFFFFC000
FFFF3020FFFF4040FFFF20
FFFF3030FFFF0000FFFF30
FFFF3030FFFF0000FFFF30
FFFF3030FFFF0000FFFF30
FFFFFFFFFFFF0000FFFF30
FFFFFFFFFFFF0000FFFF30
FFFF3030FFFF0000FFFF30
FFFF3030FFFF0000FFFF30
FFFF3030FFFF0000FFFF30
FFFF3020FFFF4040FFFF20
FFFF3000C0FFFFFFFFC000
FFFF300020C0F0F0C02000
ENDCHAR
STARTCHAR  042F
ENCODING  1071
SWIDTH  1000 0
DWIDTH  9 0
BBX  8 14 0 0
BITMAP
0010A0F0FFFFFFFF
00A0FFFFFFFFFFFF
00F0FF800030FFFF
00FFFF300030FFFF
00F0FF300030FFFF
00C0FF800030FFFF
0030E0FFFFFFFFFF
0060FFFFFFFFFFFF
00E0FFA01030FFFF
00F0FF400030FFFF
00FFFF300030FFFF
00FFFF300030FFFF
00FFFF300030FFFF
20FFFF200030FFFF
ENDCHAR
STARTCHAR  0430
ENCODING  1072
SWIDTH  1000 0
DWIDTH  8 0
BBX  8 14 0 0
BITMAP
0000A0FFFFC00000
0000E0FFFFE00000
0000F0FFFFFF1000
0020FFE0F0FF3000
0040FFA0E0FF6000
0080FF80A0FF8000
00A0FF6080FFC000
00C0FF4060FFE000
00F0FF1030FFFF10
10FFF00010FFFF30
40FFFFFFFFFFFF60
60FFF0E0E0F0FF80
80FF800000A0FFA0
C0FF40000060FFE0
ENDCHAR
STARTCHAR  0431
ENCODING  1073
SWIDTH  1000 0
DWIDTH  8 0
BBX  7 14 1 0
BITMAP
FFFFFFFFFF8000
FFFFFFFFFF8000
FFFF3000000000
FFFF3000000000
FFFF3000000000
FFFFFFF0C02000
FFFFFFFFFFE000
FFFF3030FFFF20
FFFF3000FFFF30
FFFF3000FFFF30
FFFF3000FFFF30
FFFF3030FFFF20
FFFFFFFFFFE000
FFFFFFF0C02000
ENDCHAR
STARTCHAR  0432
ENCODING  1074
SWIDTH  1000 0
DWIDTH  9 0
BBX  7 14 1 0
BITMAP
FFFFFFFFF0A010
FFFFFFFFFFFFA0
FFFF300080FFF0
FFFF300040FFFF
FFFF300030FFF0
FFFF3010A0FFC0
FFFFFFFFFFE020
FFFFFFFFFFFF60
FFFF300080FFE0
FFFF300030FFFF
FFFF300030FFFF
FFFF300080FFF0
FFFFFFFFFFFFA0
FFFFFFFFF0A010
ENDCHAR
STARTCHAR  0433
ENCODING  1075
SWIDTH  1000 0
DWIDTH  8 0
BBX  6 14 1 0
BITMAP
FFFFFFFFFFFF
FFFFFFFFFFFF
FFFF30000000
FFFF30000000
FFFF30000000
FFFF30000000
FFFF30000000
FFFF30000000
FFFF30000000
FFFF30000000
FFFF30000000
FFFF30000000
FFFF30000000
FFFF30000000
ENDCHAR
STARTCHAR  0434
ENCODING  1076
SWIDTH  1000 0
DWIDTH  11 0
BBX  10 17 0 -3
BITMAP
0000FFFFFFFFFFFFFF00
0000FFFFFFFFFFFFFF00
0000FFFF300030FFFF00
0000FFFF300030FFFF00
0000FFFF300030FFFF00
0000FFFF300030FFFF00
0000FFFF300030FFFF00
0000FFFF300030FFFF00
0000FFFF300030FFFF00
0000FFFF300030FFFF00
0000FFFF300030FFFF00
0040FFFF200030FFFF00
FFFFFFFFFFFFFFFFFFFF
FFFFFFFFFFFFFFFFFFFF
FFFF300000000030FFFF
FFFF300000000030FFFF
00000000000000000000
ENDCHAR
STARTCHAR  0435
ENCODING  1077
SWIDTH  1000 0
DWIDTH  8 0
BBX  6 14 1 0
BITMAP
FFFFFFFFFFFF
FFFFFFFFFFFF
FFFF30000000
FFFF30000000
FFFF30000000
FFFF30000000
FFFFFFFFFF00
FFFFFFFFFF00
FFFF30000000
FFFF30000000
FFFF30000000
FFFF30000000
FFFFFFFFFFFF
FFFFFFFFFFFF
ENDCHAR
STARTCHAR  0436
ENCODING  1078
SWIDTH  1000 0
DWIDTH  12 0
BBX  14 14 -1 0
BITMAP
00E0FF600000FFFF300020FFF010
0060FFE00000FFFF3000A0FF8000
0000E0FF4000FFFF3020FFF01000
000060FFC000FFFF30A0FF800000
000000E0FF40FFFF40F0F0100000
00000060FFC0FFFFC0FFA0000000
00000020FFFFFFFFFFFF60000000
00000080FFFFFFFFFFFFC0000000
000000E0FFE0FFFFE0FFFF200000
000040FFE020FFFF60C0FF800000
0000A0FF8000FFFF3060FFE00000
0020FFFF2000FFFF3000F0FF4000
0080FFC00000FFFF3000A0FFA000
00E0FF600000FFFF300030FFFF10
ENDCHAR
STARTCHAR  0437
ENCODING  1079
SWIDTH  1000 0
DWIDTH  8 0
BBX  7 14 1 0
BITMAP
10A0F0F0C02000
80FFFFFFFFC000
E0FF6040FFFF20
FFFF3000FFFF30
FFFF3000FFFF20
00000040FFF000
000060FFF04000
000060FFFF8000
00000040FFFF10
F0F03000FFFF30
FFFF3000FFFF30
F0FF6030FFFF20
A0FFFFFFFFE000
10A0F0F0C02000
ENDCHAR
STARTCHAR  0438
ENCODING  1080
SWIDTH  1000 0
DWIDTH  9 0
BBX  7 14 1 0
BITMAP
FFFF3000F0FFFF
FFFF3040FFFFFF
FFFF3080FFFFFF
FFFF30A0FFFFFF
FFFF30F0E0FFFF
FFFF60FFA0FFFF
FFFFA0FF60FFFF
FFFFE0F030FFFF
FFFFFFC030FFFF
FFFFFF8030FFFF
FFFFFF4030FFFF
FFFFFF1030FFFF
FFFFE00030FFFF
FFFFA00030FFFF
ENDCHAR
STARTCHAR  0439
ENCODING  1081
SWIDTH  1000 0
DWIDTH  9 0
BBX  7 16 1 0
BITMAP
00FFFFFFFFFF00
00FFFFFFFFFF00
FFFF3000F0FFFF
FFFF3040FFFFFF
FFFF3080FFFFFF
FFFF30A0FFFFFF
FFFF30F0E0FFFF
FFFF60FFA0FFFF
FFFFA0FF60FFFF
FFFFE0F030FFFF
FFFFFFC030FFFF
FFFFFF8030FFFF
FFFFFF4030FFFF
FFFFFF1030FFFF
FFFFE00030FFFF
FFFFA00030FFFF
ENDCHAR
STARTCHAR  043A
ENCODING  1082
SWIDTH  1000 0
DWIDTH  8 0
BBX  8 14 1 0
BITMAP
FFFF300020FFF010
FFFF3000A0FF8000
FFFF3020FFF01000
FFFF3080FF800000
FFFF40F0F0200000
FFFFC0FFA0000000
FFFFFFFF60000000
FFFFFFFFC0000000
FFFFE0FFFF200000
FFFF60C0FF800000
FFFF3060FFE00000
FFFF3000F0FF4000
FFFF300080FFC000
FFFF300030FFFF20
ENDCHAR
STARTCHAR  043B
ENCODING  1083
SWIDTH  1000 0
DWIDTH  11 0
BBX  9 14 1 0
BITMAP
0000FFFFFFFFFFFFFF
0000FFFFFFFFFFFFFF
0000FFFF300030FFFF
0000FFFF300030FFFF
0000FFFF300030FFFF
0000FFFF300030FFFF
0000FFFF300030FFFF
0000FFFF300030FFFF
0000FFFF300030FFFF
0000FFFF300030FFFF
0000FFFF300030FFFF
0040FFFF200030FFFF
FFFFFFE0000030FFFF
FFF0C020000030FFFF
ENDCHAR
STARTCHAR  043C
ENCODING  1084
SWIDTH  1000 0
DWIDTH  11 0
BBX  10 14 1 0
BITMAP
FFFFFF600000F0FFFF30
FFFFFF800020FFFFFF30
FFFFFFA00040FFFFFF30
FFFFFFC00060FFFFFF30
FFFFF0F00080F0FFFF30
FFFFE0FF10A0E0FFFF30
FFFFA0FF40E0A0FFFF30
FFFF80FF60F080FFFF30
FFFF60FFA0FF60FFFF30
FFFF30FFE0FF40FFFF30
FFFF30E0FFFF10FFFF30
FFFF30A0FFF000FFFF30
FFFF3080FFE000FFFF30
FFFF3060FFA000FFFF30
ENDCHAR
STARTCHAR  043D
ENCODING  1085
SWIDTH  1000 0
DWIDTH  9 0
BBX  7 14 1 0
BITMAP
FFFF300030FFFF
FFFF300030FFFF
FFFF300030FFFF
FFFF300030FFFF
FFFF300030FFFF
FFFF300030FFFF
FFFFFFFFFFFFFF
FFFFFFFFFFFFFF
FFFF300030FFFF
FFFF300030FFFF
FFFF300030FFFF
FFFF300030FFFF
FFFF300030FFFF
FFFF300030FFFF
ENDCHAR
STARTCHAR  043E
ENCODING  1086
SWIDTH  1000 0
DWIDTH  9 0
BBX  7 14 1 0
BITMAP
0080E0FFE08000
80FFFFFFFFFF80
E0FF800080FFE0
FFFF300030FFFF
FFFF300030FFFF
FFFF300030FFFF
FFFF300030FFFF
FFFF300030FFFF
FFFF300030FFFF
FFFF300030FFFF
FFFF300030FFFF
E0FF800080FFE0
80FFFFFFFFFF80
0080E0FFE08000
ENDCHAR
STARTCHAR  043F
ENCODING  1087
SWIDTH  1000 0
DWIDTH  9 0
BBX  7 14 1 0
BITMAP
FFFFFFFFFFFFFF
FFFFFFFFFFFFFF
FFFF300030FFFF
FFFF300030FFFF
FFFF300030FFFF
FFFF300030FFFF
FFFF300030FFFF
FFFF300030FFFF
FFFF300030FFFF
FFFF300030FFFF
FFFF300030FFFF
FFFF300030FFFF
FFFF300030FFFF
FFFF300030FFFF
ENDCHAR
STARTCHAR  0440
ENCODING  1088
SWIDTH  1000 0
DWIDTH  8 0
BBX  7 14 1 0
BITMAP
FFFFFFF0C02000
FFFFFFFFFFE000
FFFF3030FFFF20
FFFF3000FFFF30
FFFF3000FFFF30
FFFF3000FFFF30
FFFF3030FFFF20
FFFFFFFFFFE000
FFFFFFF0C02000
FFFF3000000000
FFFF3000000000
FFFF3000000000
FFFF3000000000
FFFF3000000000
ENDCHAR
STARTCHAR  0441
ENCODING  1089
SWIDTH  1000 0
DWIDTH  9 0
BBX  7 14 1 0
BITMAP
0080E0FFE08000
80FFFFFFFFFF80
E0FF800080FFE0
FFFF300030FFFF
FFFF300030E0E0
FFFF3000000000
FFFF3000000000
FFFF3000000000
FFFF3000104040
FFFF300030FFFF
FFFF300030FFFF
E0FF801080FFE0
80FFFFFFFFFF80
0080E0FFE08000
ENDCHAR
STARTCHAR  0442
ENCODING  1090
SWIDTH  1000 0
DWIDTH  9 0
BBX  7 14 1 0
BITMAP
FFFFFFFFFFFFFF
FFFFFFFFFFFFFF
0000FFFF300000
0000FFFF300000
0000FFFF300000
0000FFFF300000
0000FFFF300000
0000FFFF300000
0000FFFF300000
0000FFFF300000
0000FFFF300000
0000FFFF300000
0000FFFF300000
0000FFFF300000
ENDCHAR
STARTCHAR  0443
ENCODING  1091
SWIDTH  1000 0
DWIDTH  9 0
BBX  10 14 -1 0
BITMAP
10FFFF20000000C0FF80
00C0FF80000000F0FF30
0080FFC0000030FFE000
0020FFFF100080FFA000
0000E0FF6000C0FF6000
000080FFA000F0FF1000
000040FFE030FFE00000
000000F0FFA0FF800000
000000A0FFFFFF400000
00000040FFFFF0000000
00000010FFFFA0000000
00000040FFFF60000000
0000FFFFFFE010000000
0000FFFFE04000000000
ENDCHAR
STARTCHAR  0444
ENCODING  1092
SWIDTH  1000 0
DWIDTH  12 0
BBX  11 14 1 0
BITMAP
00000000FFFF3000000000
10A0F0FFFFFFFFFFC02000
A0FFFFFFFFFFFFFFFFE000
E0FF6000FFFF3030FFFF20
FFFF3000FFFF3000FFFF30
FFFF3000FFFF3000FFFF30
FFFF3000FFFF3000FFFF30
FFFF3000FFFF3000FFFF30
FFFF3000FFFF3000FFFF30
E0FF6000FFFF3030FFFF20
A0FFFFFFFFFFFFFFFFE000
10A0F0FFFFFFFFF0C02000
00000000FFFF3000000000
00000000FFFF3000000000
ENDCHAR
STARTCHAR  0445
ENCODING  1093
SWIDTH  1000 0
DWIDTH  9 0
BBX  9 14 0 0
BITMAP
60FFE0000010FFF000
10FFFF400060FFA000
00C0FF8000C0FF4000
0060FFE010FFF00000
0010F0FFA0FFA00000
0000A0FFFFFF400000
000060FFFFF0000000
000080FFFFFF100000
0000E0FFE0FF600000
0030FFE080FFC00000
0080FF8020FFFF2000
00E0FF3000E0FF8000
30FFE0000080FFE000
80FF80000030FFFF20
ENDCHAR
STARTCHAR  0446
ENCODING  1094
SWIDTH  1000 0
DWIDTH  9 0
BBX  8 17 1 -3
BITMAP
FFFF300030FFFF00
FFFF300030FFFF00
FFFF300030FFFF00
FFFF300030FFFF00
FFFF300030FFFF00
FFFF300030FFFF00
FFFF300030FFFF00
FFFF300030FFFF00
FFFF300030FFFF00
FFFF300030FFFF00
FFFF300030FFFF00
FFFF300030FFFF00
FFFFFFFFFFFFFFFF
FFFFFFFFFFFFFFFF
000000000030FFFF
000000000030FFFF
0000000000000000
ENDCHAR
STARTCHAR  0447
ENCODING  1095
SWIDTH  1000 0
DWIDTH  9 0
BBX  7 14 1 0
BITMAP
FFFF300030FFFF
FFFF300030FFFF
FFFF300030FFFF
FFFF300030FFFF
FFFF300030FFFF
FFFF300030FFFF
E0FF801080FFFF
80FFFFFFFFFFFF
0080E0FFF0FFFF
0000000030FFFF
0000000030FFFF
0000000030FFFF
0000000030FFFF
0000000030FFFF
ENDCHAR
STARTCHAR  0448
ENCODING  1096
SWIDTH  1000 0
DWIDTH  12 0
BBX  11 14 1 0
BITMAP
FFFF3000FFFF3000FFFF30
FFFF3000FFFF3000FFFF30
FFFF3000FFFF3000FFFF30
FFFF3000FFFF3000FFFF30
FFFF3000FFFF3000FFFF30
FFFF3000FFFF3000FFFF30
FFFF3000FFFF3000FFFF30
FFFF3000FFFF3000FFFF30
FFFF3000FFFF3000FFFF30
FFFF3000FFFF3000FFFF30
FFFF3000FFFF3000FFFF30
FFFF3000FFFF3000FFFF30
FFFFFFFFFFFFFFFFFFFF30
FFFFFFFFFFFFFFFFFFFF30
ENDCHAR
STARTCHAR  0449
ENCODING  1097
SWIDTH  1000 0
DWIDTH  12 0
BBX  12 17 1 -3
BITMAP
FFFF3000FFFF3000FFFF3000
FFFF3000FFFF3000FFFF3000
FFFF3000FFFF3000FFFF3000
FFFF3000FFFF3000FFFF3000
FFFF3000FFFF3000FFFF3000
FFFF3000FFFF3000FFFF3000
FFFF3000FFFF3000FFFF3000
FFFF3000FFFF3000FFFF3000
FFFF3000FFFF3000FFFF3000
FFFF3000FFFF3000FFFF3000
FFFF3000FFFF3000FFFF3000
FFFF3000FFFF3000FFFF3000
FFFFFFFFFFFFFFFFFFFFFF30
FFFFFFFFFFFFFFFFFFFFFF30
000000000000000000FFFF30
000000000000000000FFFF30
000000000000000000000000
ENDCHAR
STARTCHAR  044A
ENCODING  1098
SWIDTH  1000 0
DWIDTH  9 0
BBX  9 14 0 0
BITMAP
FFFFFFFF3000000000
FFFFFFFF3000000000
0000FFFF3000000000
0000FFFF3000000000
0000FFFF3000000000
0000FFFFFFF0C02000
0000FFFFFFFFFFE000
0000FFFF3040FFFF20
0000FFFF3000FFFF30
0000FFFF3000FFFF30
0000FFFF3000FFFF30
0000FFFF3030FFFF20
0000FFFFFFFFFFE000
0000FFFFFFF0C02000
ENDCHAR
STARTCHAR  044B
ENCODING  1099
SWIDTH  1000 0
DWIDTH  12 0
BBX  10 14 1 0
BITMAP
FFFF300000000030FFFF
FFFF300000000030FFFF
FFFF300000000030FFFF
FFFF300000000030FFFF
FFFF300000000030FFFF
FFFFFFF0C0200030FFFF
FFFFFFFFFFE00030FFFF
FFFF3030FFFF2030FFFF
FFFF3000FFFF3030FFFF
FFFF3000FFFF3030FFFF
FFFF3000FFFF3030FFFF
FFFF3030FFFF2030FFFF
FFFFFFFFFFE00030FFFF
FFFFFFF0C0200030FFFF
ENDCHAR
STARTCHAR  044C
ENCODING  1100
SWIDTH  1000 0
DWIDTH  8 0
BBX  7 14 1 0
BITMAP
FFFF3000000000
FFFF3000000000
FFFF3000000000
FFFF3000000000
FFFF3000000000
FFFFFFF0C02000
FFFFFFFFFFE000
FFFF3030FFFF20
FFFF3000FFFF30
FFFF3000FFFF30
FFFF3000FFFF30
FFFF3030FFFF20
FFFFFFFFFFE000
FFFFFFF0C02000
ENDCHAR
STARTCHAR  044D
ENCODING  1101
SWIDTH  1000 0
DWIDTH  8 0
BBX  7 14 1 0
BITMAP
10A0F0F0C02000
A0FFFFFFFFE000
E0FF6030FFFF20
FFFF3000FFFF30
E0E03000FFFF30
00000000FFFF30
00A0FFFFFFFF30
00A0FFFFFFFF30
30301000FFFF30
FFFF3000FFFF30
FFFF3000FFFF30
F0FF6030FFFF20
A0FFFFFFFFE000
10A0F0F0C02000
ENDCHAR
STARTCHAR  044E
ENCODING  1102
SWIDTH  1000 0
DWIDTH  12 0
BBX  11 14 1 0
BITMAP
FFFF300020C0F0F0C02000
FFFF3000C0FFFFFFFFC000
FFFF3020FFFF4040FFFF20
FFFF3030FFFF0000FFFF30
FFFF3030FFFF0000FFFF30
FFFF3030FFFF0000FFFF30
FFFFFFFFFFFF0000FFFF30
FFFFFFFFFFFF0000FFFF30
FFFF3030FFFF0000FFFF30
FFFF3030FFFF0000FFFF30
FFFF3030FFFF0000FFFF30
FFFF3020FFFF4040FFFF20
FFFF3000C0FFFFFFFFC000
FFFF300020C0F0F0C02000
ENDCHAR
STARTCHAR  044F
ENCODING  1103
SWIDTH  1000 0
DWIDTH  9 0
BBX  8 14 0 0
BITMAP
0010A0F0FFFFFFFF
00A0FFFFFFFFFFFF
00F0FF800030FFFF
00FFFF300030FFFF
00F0FF300030FFFF
00C0FF800030FFFF
0030E0FFFFFFFFFF
0060FFFFFFFFFFFF
00E0FFA01030FFFF
00F0FF400030FFFF
00FFFF300030FFFF
00FFFF300030FFFF
00FFFF300030FFFF
20FFFF200030FFFF
ENDCHAR
STARTCHAR  0451
ENCODING  1105
SWIDTH  1000 0
DWIDTH  8 0
BBX  6 17 1 0
BITMAP
FFFF3030FFFF
FFFF3030FFFF
000000000000
FFFFFFFFFFFF
FFFFFFFFFFFF
FFFF30000000
FFFF30000000
FFFF30000000
FFFF30000000
FFFFFFFFFFA0
FFFFFFFFFFA0
FFFF30000000
FFFF30000000
FFFF30000000
FFFF30000000
FFFFFFFFFFFF
FFFFFFFFFFFF
ENDCHAR
STARTCHAR  2014
ENCODING  8212
SWIDTH  1000 0
DWIDTH  20 0
BBX  20 2 0 6
BITMAP
FFFFFFFFFFFFFFFFFFFFFFFFFFFFFFFFFFFFFFFF
FFFFFFFFFFFFFFFFFFFFFFFFFFFFFFFFFFFFFFFF
ENDCHAR
STARTCHAR  2018
ENCODING  8216
SWIDTH  1000 0
DWIDTH  4 0
BBX  3 5 1 9
BITMAP
40E000
A08000
FFFF30
FFFF30
202000
ENDCHAR
STARTCHAR  2019
ENCODING  8217
SWIDTH  1000 0
DWIDTH  4 0
BBX  3 4 1 10
BITMAP
FFFF30
FFFF30
40E000
A06000
ENDCHAR
STARTCHAR  201C
ENCODING  8220
SWIDTH  1000 0
DWIDTH  7 0
BBX  5 5 1 9
BITMAP
40E00060A0
A08000E040
FFFF60FFFF
FFFF60FFFF
2020102020
ENDCHAR
STARTCHAR  201D
ENCODING  8221
SWIDTH  1000 0
DWIDTH  7 0
BBX  5 4 1 10
BITMAP
FFFF60FFFF
FFFF60FFFF
40E00080A0
A06000C040
ENDCHAR
STARTCHAR  2026
ENCODING  8230
SWIDTH  1000 0
DWIDTH  10 0
BBX  8 2 1 0
BITMAP
FFFF60FFFF60FFE0
FFFF60FFFF60FFE0
ENDCHAR
STARTCHAR  2030
ENCODING  8240
SWIDTH  1000 0
DWIDTH  18 0
BBX  17 14 0 0
BITMAP
0080F0F060000000E08000000000000000
10FF2060E0000030FF3000000000000000
30FF0030FF0000A0C00000000000000000
30FF0030FF0010F0600000000000000000
30FF0030FF0060F0100000000000000000
30FF0030FF00C0A080FFF0600080FFF060
30FF0030FF20FF40FF6080E010FF6080E0
10FF2060E080E030FF0030FF30FF0030FF
0080F0F060F08030FF0030FF30FF0030FF
0000000060FF1030FF0030FF30FF0030FF
00000000C0A00030FF0030FF30FF0030FF
00000020FF400030FF0030FF30FF0030FF
00000080E0000010FF2060E010FF2060E0
000000E08000000080F0F0600080F0F060
ENDCHAR
STARTCHAR  2116
ENCODING  8470
SWIDTH  1000 0
DWIDTH  14 0
BBX  13 14 1 0
BITMAP
FFFFE00000FFFFFFFFE0000000
FFFFFF3000FFFFA0A080000000
FFFFFF6000FFFF000000000000
FFFFFFC000FFFF0010A0E08000
FFFFC0F000FFFF00A0FFFFFF40
FFFF80FF40FFFF00E0A030FF80
FFFF40FF80FFFF00FF8000FFA0
FFFF00F0C0FFFF00FF8000FFA0
FFFF00C0FFFFFF00F0A030FF80
FFFF0080FFFFFF00A0FFFFFF40
FFFF0030FFFFFF0010A0E08000
FFFF0000F0FFFF000000000000
FFFF0000C0FFFF00A0A0A0A080
FFFF000060FFFF00FFFFFFFFE0
ENDCHAR
ENDFONT
